<svg xmlns="http://www.w3.org/2000/svg" width="100%" height="100%" version="1.1" viewBox="0 0 1005 475" style="fill-rule:evenodd;clip-rule:evenodd;stroke-linecap:square;stroke-linejoin:round;stroke-miterlimit:1.5"><g><g><path d="M7034.48,7112.1C7034.48,7112.1 7200.83,7372.9 7471.63,7382.87C7805.67,7395.17 7799.12,7030.45 7641.94,7009.64C7549.79,6997.44 7521.07,7214.94 7742.48,7197.3C7851.95,7188.58 7968.62,7080.34 7968.62,7080.34" style="fill:none;stroke-width:8.33px;stroke-dasharray:8.33,20.83,0,0;stroke:url(#gradient-0)" transform="matrix(0.828048,0,0,0.828048,83.966,43.2782) matrix(1,0,0,1,-7122.55,-6868.25)"/></g><g><path d="M7930.93,7036.39L7887.01,6942.53L8161.7,6791.9L7930.93,7036.39Z" style="fill:url(#_Linear1)" transform="matrix(0.828048,0,0,0.828048,83.966,43.2782) matrix(1,0,0,1,-7062.74,-6837.73)"/></g><g><path d="M7977.72,6959.9L7988.78,6885.17L8208.49,6715.41L7977.72,6959.9Z" style="fill:url(#_Linear2)" transform="matrix(0.828048,0,0,0.828048,83.966,43.2782) matrix(1,0,0,1,-7109.52,-6761.24)"/></g><g><path d="M7844.5,6933.21L7946.83,6973.05L8221.52,6822.42L7844.5,6933.21Z" style="fill:url(#_Linear3)" transform="matrix(0.828048,0,0,0.828048,83.966,43.2782) matrix(1,0,0,1,-7122.55,-6868.25)"/></g><g><path d="M8022.02,7063.6L7932.57,6941.65L8152.28,6771.89L8022.02,7063.6Z" style="fill:url(#_Linear4);stroke-width:6.0383px" transform="matrix(0.828048,0,0,0.828048,83.966,43.2782) matrix(1,0,0,1,-7053.32,-6817.72)"/></g></g><defs><linearGradient id="_Linear1" x1="0" x2="1" y1="0" y2="0" gradientTransform="matrix(-97.4968,-173.95,173.95,-97.4968,8082.99,6978.63)" gradientUnits="userSpaceOnUse"><stop offset="0" style="stop-color:#fffef9;stop-opacity:1"/><stop offset=".45" style="stop-color:#eae1f9;stop-opacity:1"/><stop offset="1" style="stop-opacity:1;stop-color:#e599f8"/></linearGradient><linearGradient id="_Linear2" x1="0" x2="1" y1="0" y2="0" gradientTransform="matrix(36.0384,49.0033,-49.0033,36.0384,8041.31,6827.62)" gradientUnits="userSpaceOnUse"><stop offset="0" style="stop-color:#fffef9;stop-opacity:1"/><stop offset="1" style="stop-opacity:1;stop-color:#ecb6f7"/></linearGradient><linearGradient id="_Linear3" x1="0" x2="1" y1="0" y2="0" gradientTransform="matrix(336.618,-131.985,131.985,336.618,7884.9,6954.41)" gradientUnits="userSpaceOnUse"><stop offset="0" style="stop-color:#fffef9;stop-opacity:1"/><stop offset=".48" style="stop-color:#ece4f9;stop-opacity:1"/><stop offset="1" style="stop-opacity:1;stop-color:#e099f8"/></linearGradient><linearGradient id="_Linear4" x1="0" x2="1" y1="0" y2="0" gradientTransform="matrix(176.81,-230.939,230.939,176.81,7975.48,7002.83)" gradientUnits="userSpaceOnUse"><stop offset="0" style="stop-opacity:1;stop-color:#ebebeb"/><stop offset=".51" style="stop-color:#eee6f9;stop-opacity:1"/><stop offset="1" style="stop-opacity:1;stop-color:#dd80f4"/></linearGradient><linearGradient id="gradient-0" x1="7501.55" x2="7501.55" y1="7009.145" y2="7383.174" gradientTransform="matrix(0.182596, 0.983188, -2.225851, 0.381146, 22187.225233, -2975.454863)" gradientUnits="userSpaceOnUse"><stop offset="0" style="stop-color:#ff1aba"/><stop offset="1" style="stop-color:#3877f4"/></linearGradient></defs></svg>