<svg xmlns="http://www.w3.org/2000/svg" width="336" height="336" viewBox="0 0 336 336"><defs><style>.a{fill:#0f1221;stroke-width:10px;}.a,.d,.e,.g{stroke:#f4f4f4;}.a,.e{stroke-linecap:round;}.b,.c,.d{fill:#f4f4f4;}.d{stroke-width:2px;}.e,.g,.i{fill:none;}.e{stroke-width:13px;}.f{fill:#6f717d;}.h,.j{stroke:none;}.j{fill:#f4f4f4;}</style></defs><g class="a"><circle class="h" cx="168" cy="168" r="168"/><circle class="i" cx="168" cy="168" r="163"/></g><g transform="translate(3189 -4398)"><g class="b" transform="translate(-3091 4535)"><path class="h" d="M 70.00019836425781 139.5004272460938 C 60.61670684814453 139.5004272460938 51.51486968994141 137.6629638671875 42.94749069213867 134.0391082763672 C 34.67037963867188 130.5377044677734 27.23788833618164 125.5262756347656 20.85648918151855 119.1439819335938 C 14.47388935089111 112.7613983154297 9.462434768676758 105.3286056518555 5.961289405822754 97.05201721191406 C 2.337434768676758 88.48554992675781 0.4999983608722687 79.38400268554688 0.4999983608722687 70.00019836425781 C 0.4999983608722687 60.61669158935547 2.33745288848877 51.51483917236328 5.961289405822754 42.94747543334961 C 9.461161613464355 34.67185592651367 14.4725980758667 27.23938369750977 20.8564338684082 20.85647392272949 C 27.23952484130859 14.47252941131592 34.6719970703125 9.461092948913574 42.94745254516602 5.961328983306885 C 48.88199615478516 3.45111083984375 55.12121200561523 1.786760568618774 61.50010681152344 1.01141083240509 L 61.50010681152344 14.13853454589844 C 34.10497665405273 18.291259765625 13.50039863586426 42.22906494140625 13.50039863586426 70.00019836425781 C 13.50039863586426 101.1542892456055 38.84610748291016 126.5 70.00019836425781 126.5 C 101.1542892456055 126.5 126.5 101.1542892456055 126.5 70.00019836425781 C 126.5 42.22908401489258 105.8954391479492 18.2912769317627 78.50030517578125 14.13853454589844 L 78.50030517578125 1.011411547660828 C 84.87925720214844 1.786777853965759 91.1181640625 3.451128005981445 97.052001953125 5.961310863494873 C 105.3285446166992 9.462420463562012 112.761344909668 14.47387504577637 119.1439590454102 20.85643768310547 C 125.5262680053711 27.23787498474121 130.5377044677734 34.67036437988281 134.0391082763672 42.94749450683594 C 137.6629486083984 51.51474761962891 139.5003967285156 60.61660003662109 139.5003967285156 70.00019836425781 C 139.5003967285156 79.38407135009766 137.6629638671875 88.48561859130859 134.0391082763672 97.05201721191406 C 130.5379638671875 105.3285675048828 125.5265045166016 112.7613677978516 119.1439590454102 119.1439666748047 C 112.761360168457 125.5265502929688 105.3285446166992 130.5379943847656 97.052001953125 134.0391082763672 C 88.48552703857422 137.6629638671875 79.38397979736328 139.5004272460938 70.00019836425781 139.5004272460938 Z"/><path class="j" d="M 70.00019836425781 139.0004272460938 C 79.31668853759766 139.0004272460938 88.35269165039062 137.1762542724609 96.85720062255859 133.57861328125 C 105.0741653442383 130.1027069091797 112.4535446166992 125.1272354125977 118.790397644043 118.7904052734375 C 125.1272201538086 112.4535675048828 130.1026916503906 105.0741653442383 133.57861328125 96.85722351074219 C 137.1762542724609 88.35279846191406 139.0003967285156 79.31678009033203 139.0003967285156 70.00019836425781 C 139.0003967285156 60.68389129638672 137.1762390136719 51.64756393432617 133.57861328125 43.14229202270508 C 130.1024322509766 34.92476654052734 125.1269836425781 27.54569244384766 118.790397644043 21.21000099182129 C 112.4535446166992 14.87318325042725 105.0741424560547 9.897710800170898 96.85720062255859 6.421802043914795 C 91.13986206054688 4.003191471099854 85.1383056640625 2.375702619552612 79.00030517578125 1.57820987701416 L 79.00030517578125 13.71028327941895 C 106.4250183105469 18.08244323730469 127 42.12773895263672 127 70.00019836425781 C 127 101.4300003051758 101.4300003051758 127 70.00019836425781 127 C 38.57040023803711 127 13.00039863586426 101.4300003051758 13.00039863586426 70.00019836425781 C 13.00039863586426 42.12771987915039 33.57539749145508 18.08242416381836 61.00010681152344 13.71028232574463 L 61.00010681152344 1.578208327293396 C 54.86213302612305 2.375687599182129 48.86027145385742 4.003193378448486 43.14221572875977 6.421838283538818 C 34.92636108398438 9.896383285522461 27.54732513427734 14.8718204498291 21.20996284484863 21.21005630493164 C 14.87190723419189 27.54718399047852 9.896452903747559 34.92623901367188 6.421798229217529 43.14225769042969 C 2.824162006378174 51.64765548706055 0.9999983906745911 60.68396377563477 0.9999983906745911 70.00019836425781 C 0.9999983906745911 79.31671142578125 2.824143886566162 88.35272979736328 6.421780109405518 96.85722351074219 C 9.897726058959961 105.0742034912109 14.87319850921631 112.4536056518555 21.2100715637207 118.7904586791992 C 27.54570770263672 125.1269836425781 34.92478179931641 130.1024322509766 43.14227294921875 133.5785980224609 C 51.64768981933594 137.1762542724609 60.68399810791016 139.0004272460938 70.00019836425781 139.0004272460938 M 70.00019836425781 140.0004272460938 C 60.54938125610352 140.0004272460938 51.38199996948242 138.149658203125 42.75270843505859 134.4996032714844 C 34.41599655151367 130.9730072021484 26.93008995056152 125.9255828857422 20.50290679931641 119.4975128173828 C 14.07459831237793 113.0691986083984 9.027161598205566 105.5830001831055 5.500798225402832 97.24681854248047 C 1.850743770599365 88.61840057373047 -1.635742137295892e-06 79.45130920410156 -1.635742137295892e-06 70.00019836425781 C -1.635742137295892e-06 60.54938507080078 1.850743770599365 51.38200378417969 5.500798225402832 42.75269317626953 C 9.025853157043457 34.41751098632812 14.0732889175415 26.93158340454102 20.50290679931641 20.50289344787598 C 26.93169021606445 14.07323837280273 34.41759872436523 9.025801658630371 42.75270843505859 5.500820159912109 C 48.90396118164062 2.898929119110107 55.37972640991211 1.199329137802124 62.00010681152344 0.4492746293544769 L 62.00010681152344 14.57014751434326 C 34.63541793823242 18.50156593322754 14.00039863586426 42.33087539672852 14.00039863586426 70.00019836425781 C 14.00039863586426 100.8786010742188 39.12179946899414 126 70.00019836425781 126 C 100.8786010742188 126 126 100.8786010742188 126 70.00019836425781 C 126 42.33125686645508 105.364616394043 18.50152969360352 78.00030517578125 14.57014751434326 L 78.00030517578125 0.4492746293544769 C 84.62236022949219 1.19952917098999 91.09743499755859 2.89945650100708 97.24679565429688 5.500820159912109 C 105.5829467773438 9.02714729309082 113.0691604614258 14.07458400726318 119.4975051879883 20.50289344787598 C 125.9255828857422 26.93007469177246 130.9729919433594 34.41598510742188 134.4996032714844 42.75269317626953 C 138.149658203125 51.38191223144531 140.0003967285156 60.54929351806641 140.0003967285156 70.00019836425781 C 140.0003967285156 79.45140075683594 138.149658203125 88.61847686767578 134.4996032714844 97.24681854248047 C 130.9732513427734 105.5829467773438 125.9258193969727 113.0691680908203 119.4975051879883 119.4975128173828 C 113.0691604614258 125.9258346557617 105.5829467773438 130.9732818603516 97.24679565429688 134.4996032714844 C 88.61840057373047 138.149658203125 79.45130920410156 140.0004272460938 70.00019836425781 140.0004272460938 Z"/></g><path class="c" d="M-3344.416,4595.715s1.728-8.434,1.884-9.2,1.141-3.719,1.141-3.719a41.192,41.192,0,0,1,1.938-5.109c.582-1.348.794-2.715,2.981-4.317a15.524,15.524,0,0,1,7.587-2.767,19.292,19.292,0,0,1,8.836,2.276c2.231,1.428,7.068,5.052,12.688,12.909s7.528,12.6,11.325,20.3a86.424,86.424,0,0,1,5.719,15.474s.464.7.912.7.882-.7.882-.7,3.14-9.531,4.261-14.8,1.255-12.026,1.77-13.789,2.055-4.442,4.634-5.115,6.034.866,7.381,2.609,3.147,6.09,4.269,9.454,4.037,10.989,4.71,13.007,1.57,5.495,1.57,5.495.785,2.131,1.57-.785,3.813-13.12,4.485-16.035,4.044-22.607,4.373-24.221,2.545-4.74,5.383-5.271a8.017,8.017,0,0,1,6.5,1.682,5.963,5.963,0,0,1,1.794,3.588c.164,1.4-1.233,13.12-2.916,21.642s-8.074,27.36-10.765,32.406-7.764,12.565-9.983,14.463-5.909,2.061-7.591-.518-3.619-11.814-4.179-16.076-1.011-6.547-1.527-7.562-1.285-.852-1.828.719-5.179,13.282-7.9,17.329-4.264,6.116-6.086,7.12-5.677,1.057-6.839.291-1.9-2.157-2.8-4.621-4.38-15.647-5.973-19.908-9.937-21.794-11.545-24.616a24.954,24.954,0,0,0-3.087-4.495,22.973,22.973,0,0,0-4.106-3.793c-1.2-.891-2.576-1.453-3.615-1.071s-1.919,2.053-1.919,2.053a18.123,18.123,0,0,0-1.026,2.633c-.344,1.344-.982,4.106-.982,4.106Z" transform="translate(254)"/><g class="d" transform="translate(-3030 4432)"><circle class="h" cx="6" cy="6" r="6"/><circle class="i" cx="6" cy="6" r="5"/></g><g class="d" transform="translate(-3033 4473)"><circle class="h" cx="7.5" cy="7.5" r="7.5"/><circle class="i" cx="7.5" cy="7.5" r="6.5"/></g><circle class="c" cx="13" cy="13" r="13" transform="translate(-3021 4446)"/><g transform="translate(-3045.25 4503)"><line class="e" y2="40" transform="translate(10.25 0.75)"/><line class="e" x2="10.25"/></g><g transform="translate(-3007 4503)"><line class="e" y2="40" transform="translate(0 0.75)"/><line class="e" x1="10.25"/></g><ellipse class="f" cx="41" cy="4.5" rx="41" ry="4.5" transform="translate(-3062 4690)"/><path class="g" d="M-2947.984,4548.5s.359,9.25-.016,10.3-1.375-.7-2.906-.562" transform="translate(-81 -10)"/><path class="g" d="M-2950.766,4548.063s-.475,9.889-.1,10.936,6.9-5.686,8.43-5.545" transform="translate(-62 -10)"/></g></svg>